<?xml version="1.0" encoding="UTF-8"?>
<svg id="Layer_1" data-name="Layer 1" xmlns="http://www.w3.org/2000/svg" xmlns:xlink="http://www.w3.org/1999/xlink" viewBox="0 0 1938.67 960">
  <defs>
    <style>
      .cls-1 {
        fill: url(#linear-gradient);
      }

      .cls-1, .cls-2, .cls-3, .cls-4, .cls-5, .cls-6 {
        stroke-width: 0px;
      }

      .cls-7 {
        isolation: isolate;
      }

      .cls-2 {
        fill: #005184;
      }

      .cls-3 {
        fill: url(#linear-gradient-5);
      }

      .cls-4 {
        fill: url(#linear-gradient-2);
      }

      .cls-5 {
        fill: url(#linear-gradient-3);
      }

      .cls-6 {
        fill: url(#linear-gradient-4);
      }
    </style>
    <linearGradient id="linear-gradient" x1="1004.76" y1="2130.4" x2="709.06" y2="2642.57" gradientTransform="translate(0 -2076.37)" gradientUnits="userSpaceOnUse">
      <stop offset="0" stop-color="#66eaff"/>
      <stop offset="1" stop-color="#4374d8"/>
    </linearGradient>
    <linearGradient id="linear-gradient-2" x1="1235.48" y1="2136.24" x2="928.4" y2="2668.12" xlink:href="#linear-gradient"/>
    <linearGradient id="linear-gradient-3" x1="1456.75" y1="2129.68" x2="1150.8" y2="2659.59" xlink:href="#linear-gradient"/>
    <linearGradient id="linear-gradient-4" x1="117.35" y1="2551.48" x2="656.28" y2="2551.48" gradientTransform="translate(0 -2076.37)" gradientUnits="userSpaceOnUse">
      <stop offset="0" stop-color="#f56f1f"/>
      <stop offset="1" stop-color="#f9d25d"/>
    </linearGradient>
    <linearGradient id="linear-gradient-5" x1="597.62" y1="2028.8" x2="150.93" y2="2802.5" xlink:href="#linear-gradient"/>
  </defs>
  <g class="cls-7">
    <path class="cls-2" d="M736.72,651.48h39.52l-3.18,15.03h-24.28l-6.46,30.27h20.89l-3.18,15.08h-20.89l-9.64,45.3h-15.24l22.45-105.68Z"/>
    <path class="cls-2" d="M786.48,651.48h39.52l-3.18,15.03h-24.28l-6.46,30.27h20.89l-3.18,15.08h-20.89l-6.46,30.27h24.28l-3.18,15.03h-39.52l22.45-105.68Z"/>
    <path class="cls-2" d="M837.31,651.48h23.48c10.99.04,16.48,4.92,16.48,14.65,0,2.26-.31,4.79-.92,7.59l-12.98,61.24c-3.16,14.76-11.83,22.16-26.01,22.19h-22.51l22.45-105.68ZM849.37,666.51l-16.1,75.62h6.68c4.42,0,7.14-2.39,8.18-7.16l12.98-61.24c.21-.93.32-1.76.32-2.48,0-3.16-1.79-4.74-5.38-4.74h-6.68Z"/>
    <path class="cls-2" d="M894.01,651.48h39.52l-3.18,15.03h-24.28l-6.46,30.27h20.89l-3.18,15.08h-20.89l-6.46,30.27h24.28l-3.18,15.03h-39.52l22.45-105.68Z"/>
    <path class="cls-2" d="M944.84,651.48h22.18c10.98.04,16.48,4.92,16.48,14.65,0,2.26-.3,4.79-.92,7.59l-3.34,15.89c-2.01,9.3-7.32,15.42-15.94,18.37l6.68,49.18h-16.69l-3.88-46.48-1.99.27-9.8,46.21h-15.24l22.45-105.68ZM956.9,666.51l-6.46,30.27h3.5c2.12,0,3.61-.14,4.47-.43,3.02-1.11,4.88-3.36,5.6-6.73l3.34-15.89c.22-.93.32-1.76.32-2.48,0-3.16-1.79-4.74-5.38-4.74h-5.38Z"/>
    <path class="cls-2" d="M1029.05,719.67l-3.01,37.49h-15.4l1.78-22.41h-15.56l-7.75,22.41h-15.35l12.87-37.33,25.31-68.35h20.89l-3.77,68.19ZM1013.65,719.67l3.5-43.95-15.13,43.95h11.63Z"/>
    <path class="cls-2" d="M1095.45,651.48l-3.18,15.03h-14.27l-19.28,90.65h-15.24l19.28-90.65h-14.27l3.18-15.03h43.78Z"/>
    <path class="cls-2" d="M1105.14,651.48h39.52l-3.18,15.03h-24.28l-6.46,30.27h20.89l-3.18,15.08h-20.89l-6.46,30.27h24.28l-3.18,15.03h-39.52l22.45-105.68Z"/>
    <path class="cls-2" d="M1155.97,651.48h23.48c10.99.04,16.48,4.92,16.48,14.65,0,2.26-.31,4.79-.92,7.59l-12.98,61.24c-3.16,14.76-11.83,22.16-26.01,22.19h-22.51l22.45-105.68ZM1168.03,666.51l-16.1,75.62h6.68c4.42,0,7.14-2.39,8.18-7.16l12.98-61.24c.21-.93.32-1.76.32-2.48,0-3.16-1.79-4.74-5.38-4.74h-6.68Z"/>
    <path class="cls-2" d="M1240.02,651.48h23.48c10.99.04,16.48,4.92,16.48,14.65,0,2.26-.31,4.79-.92,7.59l-3.34,15.89c-1.47,6.93-5.3,11.83-11.47,14.7,3.8,2.19,5.71,5.58,5.71,10.18,0,1.4-.18,2.91-.54,4.52l-3.34,15.94c-3.16,14.76-11.83,22.16-26.01,22.19h-22.51l22.45-105.68ZM1242.45,711.86l-6.46,30.27h6.68c4.42,0,7.14-2.39,8.18-7.16l3.34-15.94c.14-.75.22-1.45.22-2.1,0-2.23-.97-3.75-2.91-4.58-.72-.32-2.14-.48-4.25-.48h-4.79ZM1252.08,666.51l-6.46,30.27h4.79c2.12,0,3.61-.14,4.47-.43,3.01-1.11,4.88-3.36,5.6-6.73l3.34-15.89c.21-.93.32-1.76.32-2.48,0-3.16-1.79-4.74-5.38-4.74h-6.68Z"/>
    <path class="cls-2" d="M1296.45,651.48h15.24l-22.45,105.68h-15.24l22.45-105.68Z"/>
    <path class="cls-2" d="M1350.57,736.64c-3.16,14.79-12.04,22.21-26.65,22.25-11.99,0-17.99-5.01-17.99-15.03,0-2.15.29-4.56.86-7.22l13.73-64.63c3.16-14.79,12.03-22.19,26.6-22.19,12.03,0,18.04,5.01,18.04,15.03,0,2.15-.29,4.54-.86,7.16l-13.73,64.63ZM1349.06,672c.18-.86.27-1.65.27-2.37,0-3.16-1.79-4.76-5.38-4.79h-.11c-4.38,0-7.07,2.39-8.08,7.16l-13.73,64.63c-.18.9-.27,1.71-.27,2.42,0,3.16,1.79,4.74,5.38,4.74,4.45,0,7.18-2.39,8.18-7.16l13.73-64.63Z"/>
    <path class="cls-2" d="M1381.85,651.48h15.24l-22.45,105.68h-15.24l22.45-105.68Z"/>
    <path class="cls-2" d="M1411.36,651.48h15.24l1.4,61.29,13.03-61.29h14.11l-22.45,105.68h-15.24l-1.29-59.36-12.6,59.36h-14.65l22.45-105.68Z"/>
    <path class="cls-2" d="M1469.14,651.48h39.52l-3.18,15.03h-24.28l-6.46,30.27h20.89l-3.18,15.08h-20.89l-9.64,45.3h-15.24l22.45-105.68Z"/>
    <path class="cls-2" d="M1543.5,736.64c-3.16,14.79-12.04,22.21-26.65,22.25-11.99,0-17.99-5.01-17.99-15.03,0-2.15.29-4.56.86-7.22l13.73-64.63c3.16-14.79,12.03-22.19,26.6-22.19,12.03,0,18.04,5.01,18.04,15.03,0,2.15-.29,4.54-.86,7.16l-13.73,64.63ZM1541.99,672c.18-.86.27-1.65.27-2.37,0-3.16-1.79-4.76-5.38-4.79h-.11c-4.38,0-7.07,2.39-8.08,7.16l-13.73,64.63c-.18.9-.27,1.71-.27,2.42,0,3.16,1.79,4.74,5.38,4.74,4.45,0,7.18-2.39,8.18-7.16l13.73-64.63Z"/>
    <path class="cls-2" d="M1574.51,651.48h22.18c10.98.04,16.48,4.92,16.48,14.65,0,2.26-.3,4.79-.92,7.59l-3.34,15.89c-2.01,9.3-7.32,15.42-15.94,18.37l6.68,49.18h-16.69l-3.88-46.48-1.99.27-9.8,46.21h-15.24l22.45-105.68ZM1586.58,666.51l-6.46,30.27h3.5c2.12,0,3.61-.14,4.47-.43,3.02-1.11,4.88-3.36,5.6-6.73l3.34-15.89c.22-.93.32-1.76.32-2.48,0-3.16-1.79-4.74-5.38-4.74h-5.38Z"/>
    <path class="cls-2" d="M1648.5,723.87l33.12-72.39h15.24l-22.45,105.68h-14.59l12.6-59.3-25.63,59.3h-10.34l-.81-59.3-12.6,59.3h-14.75l22.45-105.68h15.24l2.53,72.39Z"/>
    <path class="cls-2" d="M1738.85,719.67l-3.01,37.49h-15.4l1.78-22.41h-15.56l-7.75,22.41h-15.35l12.87-37.33,25.31-68.35h20.89l-3.77,68.19ZM1723.45,719.67l3.5-43.95-15.13,43.95h11.63Z"/>
    <path class="cls-2" d="M1805.25,651.48l-3.18,15.03h-14.27l-19.28,90.65h-15.24l19.28-90.65h-14.27l3.18-15.03h43.78Z"/>
    <path class="cls-2" d="M1815.21,651.48h15.24l-22.45,105.68h-15.24l22.45-105.68Z"/>
    <path class="cls-2" d="M1869.32,736.64c-3.16,14.79-12.04,22.21-26.65,22.25-11.99,0-17.99-5.01-17.99-15.03,0-2.15.29-4.56.86-7.22l13.73-64.63c3.16-14.79,12.03-22.19,26.6-22.19,12.03,0,18.04,5.01,18.04,15.03,0,2.15-.29,4.54-.86,7.16l-3.02,14.22h-15.24l3.02-14.22c.18-.86.27-1.65.27-2.37,0-3.16-1.79-4.76-5.38-4.79h-.11c-4.38,0-7.07,2.39-8.08,7.16l-13.73,64.63c-.18.9-.27,1.71-.27,2.42,0,3.16,1.79,4.74,5.38,4.74,4.45,0,7.18-2.39,8.18-7.16l3.01-14.22h15.24l-3.01,14.22Z"/>
    <path class="cls-2" d="M1894.36,672c3.16-14.79,12.03-22.19,26.6-22.19,12.02,0,18.04,5.01,18.04,15.03,0,2.15-.29,4.54-.86,7.16l-3.02,14.22h-15.24l3.02-14.22c.18-.86.27-1.65.27-2.37,0-3.16-1.79-4.76-5.38-4.79h-.11c-4.38,0-7.07,2.39-8.08,7.16l-2.05,9.59c-.11.5-.16,1.04-.16,1.62,0,4.38,3.59,9.61,10.77,15.67,6.46,5.42,9.69,11.72,9.69,18.91,0,1.76-.2,3.59-.59,5.49l-2.85,13.36c-3.16,14.83-12.03,22.25-26.6,22.25-12.03-.04-18.04-5.06-18.04-15.08,0-2.15.29-4.54.86-7.16l3.02-14.22h15.24l-3.02,14.22c-.18.86-.27,1.67-.27,2.42,0,3.16,1.81,4.74,5.44,4.74,4.42,0,7.12-2.39,8.13-7.16l2.58-12.06c.14-.61.22-1.22.22-1.83,0-4.67-3.57-10.02-10.71-16.05-6.43-5.39-9.64-11.71-9.64-18.96,0-1.87.22-3.81.65-5.82l2.1-9.91Z"/>
  </g>
  <g>
    <g>
      <path class="cls-1" d="M885.8,388.88h49.15l-17.15,121.43c-10.56,68.63-39.92,100.64-99.95,100.64-54.1,0-81.48-25.08-81.48-74.9,0-7.92.66-15.84,1.98-24.42l55.75-399.92c9.24-67.97,44.86-101.3,107.87-101.3,49.15,0,74.22,24.42,74.22,73.58-.66,7.92,0,17.16-1.98,26.4l-14.84,104.27h-49.15l14.84-103.61c.66-5.61.66-9.9.66-14.85,0-20.79-8.58-30.69-30.68-30.69-25.73,0-40.57,14.85-44.86,45.87l-56.41,399.92c-.66,4.95-.66,7.92-.66,12.87,0,22.11,10.56,33.66,32.99,33.66,26.39,0,37.94-14.85,42.88-46.53l16.82-122.42Z"/>
      <path class="cls-4" d="M1088.68,604.68c0-91.4.66-177.85-4.29-266.95-4.95.66-7.92.66-12.86.66h-29.36l-37.28,266.29h-54.1L1032.93,17h89.4c60.04,0,89.4,20.13,89.4,77.21,0,8.58-.66,17.82-1.98,28.71l-16.49,117.14c-6.27,42.24-25.07,71.27-55.75,86.45,6.27,94.37,8.58,186.43,10.56,278.49h-59.38v-.33h0ZM1153.66,129.85c.66-7.92,1.32-14.85,1.32-21.45,0-25.74-9.9-36.3-40.57-36.3h-34.97l-30.02,217.12h35.63c33.65,0,47.83-14.85,52.78-48.51l15.84-110.87Z"/>
      <path class="cls-5" d="M1187.97,604.68L1270.11,17h93.68c52.12,0,74.88,22.11,74.88,70.61,0,9.24-.66,19.14-1.98,30.03l-16.49,117.8c-4.95,37.29-20.12,58.4-44.86,65,19.13,4.95,34.97,18.48,34.97,49.83,0,4.95,0,9.9-.66,14.85l-20.12,139.91c-10.56,69.29-44.86,99.32-107.87,99.32l-93.68.33h0ZM1352.25,374.69c.66-6.27,1.32-12.21,1.32-17.16,0-20.79-7.92-30.03-32.99-30.03h-39.92l-31.34,223.39h39.25c25.73,0,40.57-14.85,44.86-45.87l18.8-130.34ZM1385.56,116.98c.66-5.61,1.32-10.56,1.32-15.84,0-22.11-9.24-29.37-31.34-29.37h-39.25l-29.36,207.88h39.92c25.73,0,36.29-11.55,41.56-39.27l17.15-123.41Z"/>
    </g>
    <path class="cls-6" d="M286.57,745.46c99.18,66.42,226.09,57.45,302.02-14.29,75.93-71.74,77.33-183.28,55.47-251.38-10.65-32.79-26.9-56.61-40.62-76.51-45.95-66.98-101.14-102.57-135.6-124.43-133.64-84.35-296.7-111.54-350.49-119.1,66.96,18.5,119.91,40.64,156.89,57.73,61.64,28.87,135.88,64.18,207.6,135.92,33.62,33.35,63.88,63.62,85.17,114.9,8.41,19.9,43.99,105.37,13.45,175.15-35.3,81.83-156.89,130.31-293.9,102.01Z"/>
    <path class="cls-3" d="M389.96,440.27c-.56.84-1.12,2.24-.56,3.08.56,1.12,2.52.84,3.08.84h37.54c2.24,0,3.64-.56,5.32-2.24,10.93-9.53,26.34-8.97,35.86,1.12,9.53,10.09,9.25,25.5-.56,35.59-9.81,9.81-25.22,9.81-35.86,0-1.68-1.4-3.36-2.24-5.32-2.24h-53.79c-2.52,0-3.92.84-5.04,3.08-5.88,10.65-11.49,21.58-17.65,32.23-1.68,3.08-1.12,3.64,2.24,3.64h100.3c2.8,0,4.2-1.68,5.88-3.08,8.12-7.01,17.65-8.41,27.18-4.2s14.85,12.05,14.85,22.7-4.76,18.22-14.01,22.98c-9.25,4.76-18.49,3.64-26.62-2.24-2.24-1.68-4.2-2.24-6.72-2.24h-122.99c-2.52,0-4.2.56-5.88,2.8-6.44,9.25-13.17,17.94-19.89,27.18-.84.84-2.24,1.68-1.4,3.36.56,1.12,2.24.56,3.36.56h115.71c2.24,0,3.92-.56,5.6-1.96,11.49-8.41,26.34-6.45,35.3,4.48,8.41,10.37,7.28,25.5-2.52,34.47-9.81,9.25-24.93,9.25-35.02-.56-1.96-1.68-3.64-2.52-6.16-2.52h-144.57c-1.96,0-3.92,0-5.6,1.68-9.81,9.81-20.45,19.06-31.38,27.74-.28.28-.56.56-.84,1.12.84,1.68,2.24.84,3.36.84h79.29c2.52,0,4.48-.84,6.44-2.24,10.93-7.85,26.06-5.89,34.46,4.48,8.41,10.37,7.56,25.5-1.96,34.47-10.09,9.53-25.22,9.53-35.02,0-2.24-1.96-4.2-2.8-7-2.8h-142.33c-6.16,0-11.77,2.24-17.37,3.36-28.3,5.89-56.31,5.6-83.77-4.76-30.82-11.77-52.39-33.35-65.84-63.34-10.09-22.42-12.89-45.4-7-69.5.56-2.24,1.4-4.48,1.96-6.73.28-.56.56-.84,1.4-2.52.56,7.85,1.12,14.85,2.52,21.58,7.56,33.07,25.5,58.57,56.31,74.27,19.89,10.09,40.9,9.81,62.2,5.32,24.93-5.32,45.95-18.5,65-35.03,24.93-21.86,44.55-47.92,62.76-75.11,22.69-33.63,41.18-69.5,58.55-106.21,20.45-43.44,38.66-87.72,58.55-131.44.28-.56.56-1.4.56-1.96,7.84-16.53,15.97-33.35,23.81-49.88,7.56-13.45,14.57-27.18,22.41-40.36,24.37-41.76,52.11-80.99,86.57-114.9,30.26-29.99,64.16-54.93,104.22-70.9,21.01-8.41,43.15-13.17,65.84-14.29h3.92c.28,0,.56.28.84.28,0,1.12-.84,1.12-1.4,1.4-49.31,20.18-89.37,52.69-122.71,93.88-24.93,30.83-45.11,64.46-62.76,100.05-14.29,28.59-23.53,49.6-37.82,83.79-29.42,73.15-51.55,126.67-65.84,160.86Z"/>
  </g>
  <g>
    <path class="cls-2" d="M710.12,819.75h15.24l-22.45,105.68h-15.24l22.45-105.68Z"/>
    <path class="cls-2" d="M739.63,819.75h15.24l1.4,61.29,13.03-61.29h14.11l-22.45,105.68h-15.24l-1.29-59.36-12.6,59.36h-14.65l22.45-105.68Z"/>
    <path class="cls-2" d="M885.97,819.75h22.18c10.99.04,16.48,4.92,16.48,14.65,0,2.26-.3,4.79-.92,7.59l-3.34,15.89c-2.01,9.3-7.32,15.42-15.94,18.37l6.68,49.18h-16.69l-3.88-46.48-1.99.27-9.8,46.21h-15.24l22.45-105.68ZM898.03,834.77l-6.46,30.27h3.5c2.12,0,3.61-.14,4.47-.43,3.02-1.11,4.88-3.36,5.6-6.73l3.34-15.89c.22-.93.32-1.76.32-2.48,0-3.16-1.79-4.74-5.38-4.74h-5.38Z"/>
    <path class="cls-2" d="M1026.34,904.9c-3.16,14.79-12.04,22.21-26.65,22.25-11.99,0-17.99-5.01-17.99-15.03,0-2.15.29-4.56.86-7.22l13.73-64.63c3.16-14.79,12.03-22.19,26.6-22.19,12.03,0,18.04,5.01,18.04,15.03,0,2.15-.29,4.54-.86,7.16l-13.73,64.63ZM1024.83,840.27c.18-.86.27-1.65.27-2.37,0-3.16-1.79-4.76-5.38-4.79h-.11c-4.38,0-7.07,2.39-8.08,7.16l-13.73,64.63c-.18.9-.27,1.71-.27,2.42,0,3.16,1.79,4.74,5.38,4.74,4.45,0,7.18-2.39,8.18-7.16l13.73-64.63Z"/>
    <path class="cls-2" d="M1134.67,892.14l33.12-72.39h15.24l-22.45,105.68h-14.59l12.6-59.3-25.63,59.3h-10.34l-.81-59.3-12.6,59.3h-14.75l22.45-105.68h15.24l2.53,72.39Z"/>
    <path class="cls-2" d="M1284.58,887.93l-3.01,37.49h-15.4l1.78-22.41h-15.56l-7.75,22.41h-15.35l12.87-37.33,25.31-68.35h20.89l-3.77,68.19ZM1269.18,887.93l3.5-43.95-15.13,43.95h11.63Z"/>
    <path class="cls-2" d="M1372.72,819.75h15.24l1.4,61.29,13.03-61.29h14.11l-22.45,105.68h-15.24l-1.29-59.36-12.6,59.36h-14.65l22.45-105.68Z"/>
    <path class="cls-2" d="M1490.31,819.75h15.24l-22.45,105.68h-15.24l22.45-105.68Z"/>
    <path class="cls-2" d="M1607.37,887.93l-3.01,37.49h-15.4l1.78-22.41h-15.56l-7.75,22.41h-15.35l12.87-37.33,25.31-68.35h20.89l-3.77,68.19ZM1591.97,887.93l3.5-43.95-15.13,43.95h11.63Z"/>
  </g>
</svg>