<?xml version="1.0" encoding="UTF-8"?> <svg xmlns="http://www.w3.org/2000/svg" width="655" height="193" viewBox="0 0 655 193" fill="none"><path d="M200 143.449V142.266H209.277V75.1687H200V73.9857H237.328V75.1687H228.124V142.266H235.794C239.446 142.266 242.661 141.806 245.51 140.886C248.358 139.966 250.769 138.586 252.814 136.877C254.86 135.169 256.54 133.066 257.855 130.634C259.17 128.202 260.119 125.508 260.631 122.617H261.873V143.449H200Z" fill="white"></path><path d="M267.936 143.449V142.266H277.213V75.1687H267.936V73.9857H328.859V92.978H327.617C326.886 89.6922 325.425 86.6692 323.38 83.9748C321.334 81.2804 318.705 79.1117 315.564 77.5345C312.422 75.9573 308.843 75.1687 304.825 75.1687H295.986V142.266H303.73C308.405 142.266 312.496 141.412 315.929 139.769C319.362 138.126 322.138 135.826 324.256 132.868C326.375 129.911 327.836 126.494 328.566 122.551H329.808V143.383H267.936V143.449ZM312.349 119.725C311.619 117.688 310.45 115.716 308.989 113.942C307.455 112.167 305.775 110.722 303.876 109.67C301.976 108.619 300.077 108.027 298.105 108.027H292.626V106.91H298.105C300.077 106.91 301.976 106.384 303.876 105.399C305.775 104.413 307.455 103.033 308.989 101.324C310.523 99.6155 311.619 97.7754 312.349 95.6724H313.664V119.659H312.349V119.725Z" fill="white"></path><path d="M403.369 144.369C395.406 144.369 388.54 142.857 382.915 139.769C377.29 136.68 372.907 132.474 369.912 127.085C366.917 121.697 365.383 115.585 365.383 108.684C365.383 101.784 366.917 95.6724 369.912 90.2836C372.907 84.8948 377.29 80.6889 382.915 77.6002C388.54 74.5115 395.406 73 403.369 73C406.437 73 409.212 73.46 411.769 74.3801C414.326 75.3001 416.663 76.6145 418.709 78.3231L428.863 73.8543H429.958V94.8838H428.57C426.817 90.8751 424.772 87.3921 422.434 84.3034C420.097 81.2146 417.467 78.8488 414.472 77.0745C411.477 75.3658 408.117 74.5115 404.464 74.5115C400.958 74.5115 397.963 75.4972 395.625 77.403C393.288 79.3746 391.389 81.9376 390.074 85.2234C388.686 88.5093 387.736 92.1237 387.152 96.1982C386.567 100.273 386.275 104.347 386.275 108.619C386.275 112.825 386.567 116.965 387.152 120.974C387.736 124.982 388.686 128.663 390.074 131.948C391.462 135.234 393.288 137.797 395.625 139.769C397.963 141.74 400.885 142.66 404.464 142.66C407.825 142.66 410.893 142.135 413.522 141.083C416.152 140.032 418.417 138.586 420.462 136.68C422.434 134.84 424.188 132.671 425.722 130.174C427.256 127.677 428.57 125.048 429.739 122.288H431.127V143.317H429.958L420.681 138.454C418.49 140.294 415.933 141.675 413.084 142.726C410.089 143.843 406.875 144.369 403.369 144.369Z" fill="white"></path><path d="M439.309 143.449V142.266H448.586V75.1687H439.309V73.9857H476.637V75.1687H467.433V142.266H475.103C478.755 142.266 481.969 141.806 484.818 140.886C487.667 139.966 490.078 138.586 492.123 136.877C494.169 135.169 495.849 133.066 497.164 130.634C498.478 128.202 499.428 125.508 499.939 122.617H501.181V143.449H439.309Z" fill="white"></path><path d="M579.855 73.9857V75.1687H569.993V122.157C569.993 129.78 568.021 135.431 564.003 139.177C559.986 142.923 553.704 144.763 545.23 144.763C535.222 144.763 527.917 142.989 523.388 139.44C518.859 135.891 516.522 130.108 516.522 122.157V75.1687H507.244V73.9857H545.668V75.1687H535.368V121.236C535.368 124.259 535.514 127.151 535.88 129.78C536.245 132.408 536.902 134.709 537.998 136.614C539.021 138.586 540.555 140.097 542.454 141.215C544.426 142.332 546.91 142.857 550.051 142.857C553.704 142.857 556.918 142.135 559.694 140.754C562.469 139.374 564.734 137.14 566.268 134.117C567.875 131.094 568.679 127.085 568.679 122.157V75.1687H559.255V73.9857H579.855Z" fill="white"></path><path d="M610.244 107.962V107.173H620.105C622.443 107.173 624.561 106.647 626.46 105.661C628.36 104.676 629.821 103.099 630.916 100.864C632.012 98.6297 632.523 95.7382 632.523 92.058C632.523 88.3778 632.012 85.2891 630.916 82.7919C629.821 80.2946 628.36 78.3888 626.46 77.0745C624.561 75.7601 622.443 75.1029 620.105 75.1029H585.699V73.92H623.173C632.085 73.92 639.025 75.3001 644.211 77.9945C649.325 80.6889 651.881 85.0263 651.881 91.0723C651.881 96.7239 649.471 100.996 644.577 103.756C639.755 106.516 632.597 107.896 623.173 107.896H610.244V107.962ZM585.626 143.449V142.266H621.055C623.758 142.266 626.095 141.543 628.067 139.966C630.113 138.454 631.647 136.351 632.743 133.591C633.838 130.831 634.423 127.611 634.423 123.997C634.423 120.316 633.838 117.359 632.743 115.059C631.647 112.759 630.04 111.05 628.067 109.999C626.022 108.947 623.685 108.356 621.055 108.356H610.17V107.633H625.072C630.697 107.633 635.738 108.159 640.194 109.276C644.723 110.393 648.229 112.233 650.859 114.796C653.489 117.359 654.803 120.908 654.803 125.377C654.803 131.948 652.174 136.614 646.987 139.374C641.801 142.135 634.423 143.449 624.999 143.449H585.626ZM594.976 142.857V74.5772H613.823V142.857H594.976Z" fill="white"></path><path d="M181.89 152.924C182.655 151.938 183.073 150.755 183.212 149.572C183.351 148.39 183.003 147.338 182.447 146.352C181.89 145.367 181.194 144.512 180.289 143.789C179.871 143.461 179.384 143.132 178.827 142.804C178.548 142.606 178.27 142.475 177.922 142.212C177.574 141.949 177.156 141.621 176.878 140.964C176.808 140.832 176.739 140.635 176.739 140.438C176.739 140.306 176.669 140.043 176.669 140.043V139.583L176.599 138.663C176.53 138.072 176.46 137.546 176.39 136.955C176.182 135.838 175.903 134.786 175.416 133.866C175.207 133.406 174.929 132.946 174.65 132.552C174.372 132.157 174.024 131.829 173.606 131.435C172.84 130.712 171.935 130.054 170.961 129.397C169.012 128.149 166.784 127.031 164.487 126.046C162.19 125.06 159.823 124.14 157.457 123.22C155.09 122.3 152.654 121.511 150.217 120.591L146.598 119.277L142.908 117.897C137.896 115.991 133.024 113.691 128.43 110.799C123.835 107.973 119.52 104.556 115.761 100.679C113.881 98.7073 112.071 96.6701 110.54 94.5014C108.939 92.3985 107.477 90.1641 106.085 87.9954C103.37 83.5924 101.003 79.0579 98.7063 74.7205C97.5229 72.5519 96.4092 70.3832 95.2954 68.5431C95.1562 68.2802 95.017 68.0831 94.8777 67.8859C94.7385 67.6888 94.5993 67.4916 94.4601 67.2945C94.1816 66.9002 93.9032 66.6373 93.8336 66.5716C93.8336 66.5716 93.764 66.5716 93.764 66.5059L93.4856 66.3087C93.2767 66.1773 93.1375 66.0459 92.9287 65.9144C92.511 65.6516 92.0934 65.3887 91.6757 65.1915C88.1256 63.2857 83.0441 62.1685 77.9626 60.5913C72.8812 59.0798 67.6604 57.2397 62.8574 54.8082C60.421 53.6253 58.0543 52.3109 55.7572 50.8652C53.4601 49.4194 51.3022 47.9079 49.1443 46.3307C47.056 44.7535 44.9677 43.0448 43.0187 41.4019C42.0441 40.5476 41.0696 39.6932 40.0951 38.8389C39.1206 37.9846 38.2156 37.0645 37.2411 36.2102C33.5518 32.6615 30.0017 28.9156 26.7301 25.0383C23.4584 21.161 20.326 17.0865 17.472 12.9463C14.618 8.80611 11.9728 4.46877 9.81494 0C11.3464 1.97152 12.9474 3.94303 14.618 5.84883C16.2886 7.75463 17.9592 9.59472 19.6299 11.4348C23.0407 15.115 26.5908 18.6637 30.2801 22.0153C33.9694 25.4326 37.7283 28.7184 41.6265 31.8072C45.5246 34.8959 49.562 37.9189 53.6689 40.5476C57.8455 43.1762 62.0917 45.5421 66.5467 47.5136C71.0017 49.4194 75.6655 50.9966 80.5382 52.1795C82.9745 52.8367 85.4805 53.4281 88.1256 54.151C90.7708 54.8739 93.5552 55.7282 96.3396 57.174C97.0356 57.5683 97.7317 57.8969 98.3582 58.3569C98.7063 58.5541 99.0543 58.817 99.3328 59.0141L99.82 59.3427L99.9593 59.4084L100.098 59.5398L100.447 59.8027C101.282 60.5256 101.839 61.2485 102.326 61.8399C102.604 62.1685 102.813 62.4971 103.022 62.76C103.231 63.0886 103.44 63.3514 103.649 63.68C104.414 64.8629 105.11 66.0459 105.737 67.163C106.363 68.2802 106.99 69.3974 107.547 70.5146C109.844 74.9834 112.071 79.255 114.508 83.3952C115.691 85.4325 117.014 87.4697 118.336 89.3755C119.032 90.3612 119.728 91.2813 120.424 92.1356C120.772 92.5956 121.121 93.0557 121.538 93.5157C121.886 93.9757 122.304 94.4357 122.652 94.83C124.183 96.6044 125.924 98.1816 127.664 99.7588C129.404 101.336 131.284 102.782 133.302 104.162C135.251 105.542 137.34 106.791 139.428 108.039C141.586 109.222 143.744 110.339 145.971 111.391L147.642 112.179L149.382 112.968L152.932 114.479C155.299 115.531 157.666 116.582 160.032 117.634C162.399 118.751 164.766 119.868 167.132 121.117C169.43 122.366 171.796 123.811 173.954 125.454C175.068 126.309 176.112 127.294 177.017 128.346C177.504 128.872 177.922 129.529 178.34 130.186C178.757 130.843 179.036 131.5 179.244 132.223C179.732 133.603 179.871 134.983 179.941 136.363C179.941 137.02 179.941 137.678 179.871 138.335L179.801 139.255L179.732 139.715C179.732 139.846 179.732 139.781 179.732 139.781V139.715C179.662 139.649 179.662 139.781 179.871 139.912C180.01 140.044 180.219 140.241 180.497 140.438C180.985 140.832 181.542 141.292 182.029 141.818C183.003 142.869 183.769 144.118 184.187 145.367C184.604 146.681 184.604 148.127 184.187 149.375C183.63 151.018 182.864 152.135 181.89 152.924Z" fill="#93907D"></path><path d="M180.985 152.924C180.845 151.281 180.08 149.901 179.036 148.915C177.922 147.93 176.599 147.338 175.137 146.878C174.789 146.812 174.441 146.681 174.024 146.615C173.815 146.55 173.676 146.55 173.467 146.484L172.84 146.418C172.005 146.287 171.239 146.155 170.404 146.089C168.803 145.892 167.272 145.761 165.671 145.761C162.538 145.695 159.406 145.827 156.273 146.155C155.856 146.221 155.508 146.221 155.16 146.287C154.812 146.352 154.463 146.418 154.046 146.418C153.35 146.55 152.584 146.681 151.818 146.878C150.357 147.272 148.895 147.732 147.433 148.258C144.509 149.375 141.516 150.69 138.593 152.135C137.896 152.464 137.061 152.858 136.295 153.187C135.53 153.516 134.694 153.91 133.859 154.173C132.258 154.764 130.587 155.356 128.917 155.816C125.576 156.801 122.025 157.393 118.475 157.459C117.57 157.459 116.666 157.459 115.83 157.393C114.925 157.327 114.09 157.196 113.185 157.064C112.35 156.933 111.445 156.67 110.609 156.473C109.774 156.21 108.939 155.881 108.173 155.553C111.584 155.684 114.856 155.224 117.988 154.37C121.121 153.581 124.114 152.464 127.037 151.15C128.499 150.493 129.961 149.835 131.353 149.112C132.049 148.718 132.745 148.39 133.441 147.995C134.137 147.601 134.834 147.207 135.599 146.812C138.593 145.235 141.655 143.724 144.997 142.475C146.667 141.818 148.338 141.292 150.148 140.832L151.47 140.504C151.958 140.438 152.375 140.306 152.862 140.241C153.35 140.175 153.767 140.109 154.255 140.043C154.742 139.978 155.229 139.912 155.647 139.912C159.197 139.649 162.817 139.715 166.367 140.438C167.272 140.635 168.107 140.832 169.012 141.095C169.847 141.358 170.752 141.621 171.587 141.949C172.423 142.278 173.258 142.606 174.024 143.001C174.789 143.395 175.625 143.724 176.46 144.184C178.061 145.104 179.592 146.287 180.497 147.93C181.333 149.507 181.542 151.347 180.985 152.924Z" fill="#93907D"></path><path d="M164.905 115.005C165.392 113.625 165.949 112.311 166.576 111.062C167.202 109.748 167.968 108.499 168.733 107.316C170.265 104.885 172.075 102.519 174.093 100.35C178.061 96.0129 183.003 92.1356 188.781 89.7041L190.73 88.8497C191.357 88.5869 191.983 88.324 192.609 87.9954C193.236 87.6668 193.862 87.404 194.419 87.0754C195.046 86.7468 195.603 86.4182 196.16 86.0896C198.457 84.6438 200.545 83.0009 202.285 81.0951C205.835 77.2178 207.924 72.0918 207.993 66.4402C209.037 69.1346 209.316 72.0918 208.898 75.0491C208.48 78.0064 207.297 80.898 205.557 83.4609C203.817 86.0239 201.52 88.1926 199.014 90.0327C197.761 90.9527 196.438 91.7413 195.046 92.5299C194.35 92.9242 193.654 93.2528 192.958 93.5814L190.939 94.5014C185.997 96.7358 181.402 99.8903 177.156 103.439C172.98 106.856 168.942 110.799 164.905 115.005Z" fill="#93907D"></path><path d="M202.146 93.8443C204.374 92.0699 206.462 90.2298 208.341 88.324C210.221 86.4182 212.031 84.4467 213.562 82.4095C216.694 78.2693 219.061 73.8662 219.757 69.266C220.593 64.6658 220.175 59.737 218.992 54.9396C218.365 52.5081 217.599 50.0766 216.555 47.7107C215.511 45.3449 214.328 42.9791 212.727 40.6133C215.441 41.7962 217.808 43.702 219.757 45.8707C221.706 48.0393 223.377 50.5366 224.56 53.1653C225.813 55.794 226.649 58.6855 226.997 61.6428C227.345 64.6001 227.275 67.6231 226.649 70.5803C226.301 72.0918 225.883 73.5376 225.256 74.9177C224.63 76.2978 223.934 77.6778 223.168 78.9264C221.567 81.4237 219.618 83.7238 217.39 85.6953C215.163 87.6668 212.796 89.3755 210.221 90.7555C207.715 92.0699 205 93.1871 202.146 93.8443Z" fill="#93907D"></path><path d="M220.523 89.9012C223.098 87.9297 225.674 85.9582 227.971 83.9209C230.268 81.818 232.287 79.6493 233.818 77.2835C235.419 74.9177 236.463 72.4204 237.09 69.726C237.716 67.0973 237.925 64.2715 237.856 61.3799C237.856 59.9341 237.786 58.4884 237.647 57.0426L237.438 54.8082C237.368 54.0853 237.299 53.3624 237.16 52.7052C236.742 49.8794 236.115 47.0536 235.28 44.162C233.609 38.4446 231.173 32.8586 228.458 27.0755C229.781 28.0613 231.034 29.1784 232.148 30.2956C233.331 31.4786 234.375 32.6615 235.419 33.9758C237.438 36.5388 239.178 39.2989 240.64 42.2562C242.102 45.2135 243.216 48.3022 243.912 51.588C244.121 52.3767 244.26 53.231 244.329 54.0196C244.469 54.8082 244.538 55.5968 244.608 56.3854C244.747 57.9626 244.886 59.6055 244.886 61.2485C244.886 64.5343 244.538 67.9516 243.424 71.3032C242.311 74.5891 240.501 77.7435 238.064 80.3065C235.698 82.8695 232.844 84.9067 229.781 86.4182C228.25 87.2068 226.718 87.864 225.117 88.4554C223.725 89.0469 222.124 89.5069 220.523 89.9012Z" fill="#93907D"></path><path d="M172.771 120.591C174.789 118.094 177.156 115.794 179.662 113.691C182.168 111.588 184.883 109.616 187.667 107.842C193.236 104.228 199.362 101.336 205.696 98.9702L208.063 98.1159L210.499 97.3273C212.1 96.8673 213.771 96.3415 215.441 95.9472C217.112 95.4872 218.783 95.1586 220.453 94.8301L225.256 93.91C228.25 93.3186 231.173 92.4642 233.958 91.347C236.742 90.2955 239.317 88.9812 241.684 87.3383C242.868 86.5497 243.981 85.6953 245.025 84.7753C246.07 83.8553 247.044 82.8695 247.949 81.7523C249.759 79.6494 251.221 77.2835 252.404 74.7206C253.031 73.4719 253.518 72.1576 253.935 70.7775C254.144 70.1204 254.353 69.3975 254.562 68.7403C254.701 68.0174 254.91 67.3602 255.049 66.6373C255.328 65.2573 255.536 63.8115 255.676 62.3657C255.745 61.6428 255.815 60.9199 255.815 60.197C255.884 59.4742 255.885 58.7513 255.885 57.9627C255.954 55.0054 255.745 51.9824 255.536 48.9594C255.258 45.9364 254.91 42.9134 254.423 39.8247C253.935 36.8017 253.379 33.7787 252.682 30.7557C251.986 27.7327 251.221 24.7097 250.037 21.7524C251.986 24.3154 253.587 27.1413 254.98 30.0328C256.372 32.9244 257.555 35.8817 258.599 38.9047C259.643 41.9276 260.548 45.0164 261.244 48.1708C261.453 48.9594 261.592 49.748 261.732 50.5366L261.941 51.7195L262.149 52.9024C262.428 54.4796 262.637 56.1226 262.776 57.6998C263.402 64.2058 262.776 71.1718 260.131 77.6121C259.852 78.4007 259.435 79.1893 259.087 79.9779C258.878 80.3722 258.669 80.7666 258.46 81.1609C258.251 81.5552 258.042 81.9495 257.834 82.3438C256.929 83.8553 255.885 85.3668 254.84 86.7468L254.005 87.7983L253.1 88.7841C252.822 89.1126 252.474 89.4412 252.126 89.7698C251.778 90.0984 251.499 90.427 251.151 90.6899C249.828 91.8728 248.367 93.0557 246.905 94.0414C243.912 96.0787 240.64 97.6559 237.299 98.9702C233.958 100.219 230.477 101.073 226.997 101.665L224.421 102.059L222.054 102.388C221.289 102.519 220.523 102.65 219.688 102.782C218.922 102.913 218.087 103.045 217.321 103.176C215.789 103.439 214.188 103.768 212.657 104.096L210.36 104.622L208.063 105.213C201.937 106.856 195.881 108.894 189.964 111.457C183.908 114.019 178.2 116.977 172.771 120.591Z" fill="#93907D"></path><path d="M103.231 157.721C102.604 158.444 102.048 159.167 101.63 159.89C101.212 160.613 100.934 161.402 100.655 162.19C100.098 163.767 99.6112 165.476 98.9847 167.185C98.6366 168.039 98.3582 168.893 97.9406 169.748C97.5925 170.602 97.1749 171.391 96.6876 172.311C95.7131 174.019 94.5993 175.662 93.2071 177.108C90.4923 180.065 86.8726 182.365 83.0441 183.614C79.146 184.863 75.039 185.191 71.2105 184.337C72.9507 183.417 74.691 182.694 76.292 181.84C77.893 180.985 79.4244 180.131 80.8166 179.277C83.6706 177.437 86.1069 175.399 88.3345 173.034C89.4482 171.851 90.4227 170.602 91.3973 169.288L92.8591 167.185L94.3905 165.016C95.4346 163.57 96.4788 162.059 97.9406 160.613C98.6366 159.89 99.472 159.233 100.377 158.707C101.282 158.116 102.256 157.853 103.231 157.721Z" fill="#93907D"></path><path d="M100.238 149.507C99.0543 151.807 97.6622 153.976 96.1307 156.013C94.5993 158.116 92.9983 160.087 91.3277 161.993C90.4924 162.979 89.5874 163.899 88.6825 164.819C87.7776 165.739 86.8727 166.659 85.8285 167.513C85.3413 167.973 84.7844 168.433 84.2971 168.828L82.6961 170.076C81.5824 170.865 80.4686 171.654 79.2852 172.311C78.7284 172.639 78.1019 173.034 77.4754 173.296C76.8489 173.625 76.292 173.954 75.6655 174.216C75.0391 174.479 74.4126 174.808 73.7861 175.071L71.837 175.794C69.2615 176.714 66.6163 177.437 63.9712 177.897C58.6112 178.817 53.2513 179.014 47.961 178.357C50.5365 177.634 53.0425 177.042 55.5484 176.319C58.0543 175.597 60.4907 174.939 62.927 174.085C65.2937 173.296 67.6605 172.376 69.888 171.325C72.1155 170.339 74.2734 169.156 76.3616 167.908C77.4058 167.316 78.3803 166.593 79.4245 165.936L80.8863 164.885L82.2784 163.767C84.1579 162.19 86.107 160.613 88.056 158.97C90.0051 157.327 91.9542 155.75 93.9729 154.107C95.9915 152.53 98.0798 150.953 100.238 149.507Z" fill="#93907D"></path><path d="M99.7504 139.583C98.0798 141.818 96.27 143.855 94.3209 145.892C92.4414 147.93 90.4228 149.835 88.3345 151.675C84.1579 155.421 79.8421 158.839 74.7606 161.862C72.0459 163.373 69.2615 164.49 66.3379 165.279C63.4839 166.068 60.5603 166.593 57.6367 166.856C54.7131 167.119 51.7895 167.119 48.8659 166.856C45.9423 166.593 43.0883 166.133 40.3039 165.279C43.1579 164.622 45.9423 164.096 48.6571 163.57C51.3718 162.979 54.0866 162.387 56.6622 161.73C59.3073 161.073 61.8829 160.35 64.3192 159.496C66.8251 158.641 69.1919 157.721 71.4194 156.539L71.837 156.341L72.2547 156.079L73.09 155.619C73.6469 155.29 74.2734 154.961 74.8302 154.567C76.0136 153.91 77.1274 153.187 78.3107 152.464L85.2717 148.127C87.5688 146.681 89.9355 145.169 92.3022 143.724C94.8082 142.344 97.2445 140.898 99.7504 139.583Z" fill="#93907D"></path><path d="M0 25.6954C2.50594 28.7184 5.01188 31.61 7.51782 34.3701C10.0238 37.1302 12.6689 39.8247 15.3141 42.3876C17.9593 44.9506 20.7436 47.3164 23.528 49.6165C26.382 51.8509 29.3056 53.9539 32.438 55.8597C33.2037 56.3197 33.9694 56.7797 34.8047 57.2397C35.6401 57.6997 36.4058 58.094 37.1715 58.5541C38.7725 59.4084 40.5127 60.197 42.1834 60.9856C45.5942 62.4971 49.1443 63.8772 52.6944 65.1258C59.9338 67.5573 67.382 69.6603 75.2479 71.2375C73.2988 71.6318 71.2801 71.829 69.2615 71.9604C67.2428 72.0918 65.2241 72.0918 63.2054 72.0261C59.1681 71.9604 55.1307 71.5004 51.0934 70.7775C47.056 70.0546 43.0883 69.0688 39.1901 67.7545C37.2411 67.0973 35.3616 66.3087 33.4126 65.5201C32.438 65.1258 31.5331 64.6658 30.5586 64.2058C29.6536 63.7457 28.6791 63.2857 27.7742 62.76C24.1545 60.7227 20.8132 58.2912 17.7504 55.5968C16.219 54.2167 14.7572 52.8367 13.4346 51.3252C12.0424 49.8794 10.7895 48.3022 9.6061 46.725C8.97962 45.9364 8.42274 45.1477 7.86586 44.2934C7.30899 43.4391 6.75212 42.6505 6.26485 41.7962C5.22071 40.0875 4.31579 38.3789 3.48047 36.6045C2.64516 34.8301 1.94906 33.0558 1.32258 31.2157C0.83531 29.507 0.278438 27.667 0 25.6954Z" fill="#93907D"></path><path d="M3.34125 67.1631C8.70118 70.3832 14.2003 73.0119 19.7691 75.1148C25.3379 77.2178 31.0458 78.795 36.8234 79.8465C39.6774 80.3722 42.7402 80.7665 45.7334 81.0951C48.7266 81.4237 51.7199 81.6866 54.7131 81.8837C57.7063 82.0152 60.7691 82.0809 63.7623 82.0152C66.8251 81.8837 69.8879 81.6866 72.9508 80.9637C71.7674 82.0152 70.3752 82.8038 68.9134 83.5267C67.4516 84.2495 65.9202 84.7753 64.3888 85.301C61.2564 86.2868 58.0543 86.8782 54.8523 87.2068C53.2513 87.3383 51.5806 87.4697 49.9796 87.5354C48.3786 87.6011 46.708 87.5354 45.107 87.4697C41.9049 87.3383 38.7029 87.0097 35.4312 86.4182C28.9575 85.2353 22.7623 83.0009 17.1935 79.7808C14.4092 78.1378 11.8336 76.2978 9.46689 74.1948C8.28352 73.1433 7.16977 72.0261 6.12563 70.8432C5.08149 69.726 4.10695 68.5431 3.34125 67.1631Z" fill="#93907D"></path><path d="M7.3786 89.9012C13.4346 91.9385 19.4211 93.6471 25.4075 95.0272C31.3939 96.4072 37.3803 97.3273 43.2971 97.5245C49.2835 97.7873 55.0611 97.1959 60.9779 96.0129C66.8947 94.83 72.7419 93.1214 78.8676 91.0841C76.7793 93.5157 74.2037 95.4872 71.4889 97.1959C68.7742 98.9045 65.781 100.35 62.7182 101.467C59.5857 102.585 56.3141 103.439 52.9728 103.833C49.6316 104.293 46.2207 104.293 42.8795 104.096C36.1969 103.636 29.7233 101.993 23.7368 99.5617C20.7436 98.3788 17.82 96.933 15.1053 95.29C12.3209 93.7786 9.67571 92.0042 7.3786 89.9012Z" fill="#93907D"></path><path d="M48.8658 115.4C52.5551 115.005 56.0356 114.545 59.3769 113.954C62.7181 113.362 65.9202 112.574 69.1222 111.588C69.5399 111.456 69.8879 111.325 70.3056 111.194C70.7232 111.062 71.0713 110.931 71.4889 110.799L72.6723 110.339C73.09 110.208 73.438 110.076 73.7861 109.879C74.4822 109.551 75.2479 109.222 75.944 108.828C76.64 108.433 77.3361 108.039 78.1018 107.579C80.9558 105.805 83.6706 103.702 86.5246 101.467C85.9677 103.176 85.1324 104.753 84.1579 106.265C83.1833 107.776 82.0696 109.222 80.747 110.536C79.4244 111.851 77.9626 113.034 76.2224 114.019C75.8047 114.282 75.3871 114.479 74.9694 114.677C74.5517 114.874 74.1341 115.071 73.7164 115.268C72.8811 115.662 71.9762 115.991 71.0713 116.32C67.4516 117.568 63.6231 118.16 59.8642 118.028C57.9847 117.962 56.1052 117.7 54.2954 117.305C53.3905 117.108 52.4856 116.845 51.5806 116.517C50.4669 116.32 49.6315 115.925 48.8658 115.4Z" fill="#93907D"></path><path d="M63.7623 126.834C67.2428 126.374 70.3056 125.98 73.2292 125.257C76.1528 124.6 78.8676 123.68 81.4431 122.431C82.0696 122.103 82.6961 121.774 83.3922 121.38C83.7402 121.183 84.0187 120.985 84.3667 120.788C84.7148 120.591 84.9932 120.394 85.3413 120.197C86.5942 119.343 87.8472 118.488 89.0306 117.502C91.4669 115.597 93.8336 113.559 96.4092 111.391C95.9915 112.968 95.2954 114.414 94.5297 115.86C93.764 117.305 92.8591 118.685 91.8149 119.934C89.7963 122.563 87.2903 124.863 84.2275 126.769C82.6961 127.689 80.9559 128.412 79.2156 128.872C77.4754 129.332 75.6656 129.594 73.8557 129.594C72.0459 129.594 70.3056 129.397 68.5654 128.937C66.8251 128.477 65.2241 127.886 63.7623 126.834Z" fill="#93907D"></path><path d="M81.3735 137.941C82.9049 136.955 84.4363 136.166 85.8981 135.378L90.2835 133.077C91.6757 132.289 93.1375 131.566 94.3905 130.777C95.017 130.383 95.6434 129.989 96.2003 129.529C96.3395 129.397 96.4788 129.332 96.618 129.2L96.8268 129.069L97.1053 128.872C97.4533 128.543 97.871 128.28 98.219 128.017C99.7504 126.966 101.491 126.046 103.3 125.389C105.11 124.797 107.059 124.469 109.008 124.403C110.888 124.337 112.767 124.6 114.508 125.06C116.248 125.454 117.918 126.046 119.52 126.834C117.71 127.031 115.969 127.097 114.299 127.294C112.628 127.492 111.027 127.689 109.496 128.083C106.433 128.806 103.857 130.186 101.56 132.026L100.725 132.749L100.238 133.143C100.029 133.275 99.8896 133.472 99.6808 133.603C98.9151 134.195 98.0798 134.72 97.2445 135.18C95.5738 136.035 93.9032 136.758 92.0934 137.218C90.3531 137.678 88.5433 138.006 86.803 138.203C84.9932 138.203 83.1834 138.269 81.3735 137.941Z" fill="#93907D"></path><path d="M156.691 161.796C155.716 160.744 154.185 160.284 152.723 160.416C152.375 160.416 152.097 160.482 151.749 160.547C150.705 160.81 149.66 161.27 148.825 161.927C147.99 162.585 147.294 163.373 146.737 164.162C145.693 165.673 144.857 167.316 143.604 168.696C143.256 169.025 142.908 169.288 142.491 169.551C142.143 169.748 141.725 169.945 141.377 170.076C141.238 170.076 141.168 170.142 141.029 170.142C141.586 170.273 142.143 170.273 142.63 170.208C144.649 170.011 146.319 168.631 147.711 167.382C148.964 166.199 150.148 164.885 151.61 163.965C152.027 163.767 152.445 163.57 152.862 163.373C153.141 163.307 153.419 163.242 153.698 163.242C153.907 163.242 154.115 163.242 154.324 163.307C154.463 163.373 154.672 163.439 154.812 163.505C154.951 163.57 155.16 163.702 155.299 163.833C155.508 164.03 155.647 164.227 155.856 164.425C156.134 164.819 156.343 165.213 156.482 165.673C156.761 166.593 156.9 167.513 156.969 168.433C157.248 167.908 157.457 167.382 157.596 166.856C158.014 165.082 157.944 163.11 156.691 161.796Z" fill="#93907D"></path><path d="M150.078 159.956C149.66 159.759 149.173 159.693 148.756 159.759C148.338 159.759 147.851 159.89 147.503 160.022C146.528 160.35 145.693 161.073 145.066 161.796C143.952 163.045 143.604 164.819 143.256 166.396C143.117 167.053 142.908 167.71 142.56 168.302C142.421 168.565 142.282 168.762 142.073 168.959C141.864 169.156 141.655 169.288 141.447 169.419C141.168 169.616 140.82 169.748 140.542 169.813C141.377 169.945 142.212 169.813 142.908 169.419C144.37 168.631 145.205 167.185 145.971 165.805C146.389 165.082 146.806 164.425 147.363 163.767C147.711 163.439 148.129 163.176 148.547 162.913C148.686 162.847 148.895 162.716 149.034 162.65H149.104C149.104 162.65 149.104 162.65 149.173 162.65C149.243 162.716 149.312 162.782 149.382 162.913C149.591 163.242 149.73 163.636 149.869 163.965V164.03C150.287 165.279 150.496 166.528 150.496 167.776C150.496 168.368 150.496 168.959 150.426 169.551C150.844 169.025 151.192 168.368 151.47 167.71C151.958 166.462 152.306 165.082 152.236 163.767C152.236 162.979 152.097 162.256 151.818 161.533C151.679 161.204 151.47 160.942 151.261 160.679C150.913 160.416 150.496 160.153 150.078 159.956Z" fill="#93907D"></path><path d="M144.788 168.368C143.396 169.879 141.307 170.536 139.497 171.522C139.428 171.522 139.358 171.588 139.289 171.588C138.941 171.785 138.593 172.048 138.314 172.376C138.105 172.639 137.896 172.902 137.757 173.165C137.618 173.494 137.479 173.822 137.34 174.151C137.27 174.414 137.27 174.611 137.27 174.874C137.27 175.071 137.34 175.268 137.409 175.465C137.479 175.662 137.618 175.859 137.757 176.057C137.896 176.254 138.105 176.451 138.314 176.648C138.523 176.845 138.801 176.977 139.08 177.108C139.358 177.239 139.706 177.371 140.054 177.437C140.472 177.502 140.82 177.568 141.238 177.502C141.725 177.502 142.212 177.371 142.63 177.239C142.769 177.174 142.978 177.108 143.117 177.042C141.725 178.554 139.358 179.211 137.34 178.357C136.295 177.962 135.39 177.174 134.834 176.254C134.277 175.202 134.207 173.954 134.625 172.836C135.042 171.588 136.017 170.602 137.2 169.945C138.175 169.419 139.289 169.222 140.333 169.025C141.586 168.828 142.908 168.762 144.161 168.433C144.37 168.499 144.579 168.433 144.788 168.368Z" fill="#93907D"></path><path d="M123.835 155.093C126.759 155.75 130.1 155.158 130.1 155.093C130.448 157.919 131.214 161.139 132.258 162.913C133.302 164.556 134.486 165.41 135.182 166.002C136.504 167.119 137.409 167.71 139.08 168.368C141.655 169.485 144.718 168.499 144.718 168.499C144.718 168.499 143.396 169.419 141.934 169.616C140.681 169.813 138.593 170.142 136.017 169.616C132.397 168.893 130.031 166.922 128.569 165.476C125.645 162.585 124.044 160.416 122.374 157.787C121.956 157.196 121.608 156.604 121.26 156.079C122.165 155.816 123 155.487 123.835 155.093Z" fill="#93907D"></path><path d="M144.44 166.068C143.535 164.95 142.073 164.425 140.611 164.425C140.263 164.425 139.985 164.425 139.637 164.49C138.523 164.687 137.548 165.082 136.643 165.673C135.808 166.265 135.042 166.988 134.416 167.776C133.233 169.222 132.328 170.799 130.935 172.048C130.587 172.376 130.17 172.639 129.752 172.836C129.404 173.034 128.986 173.165 128.569 173.231C128.43 173.231 128.36 173.296 128.221 173.296C128.708 173.428 129.265 173.494 129.822 173.494C131.84 173.428 133.65 172.179 135.112 170.996C136.435 169.879 137.688 168.696 139.289 167.842C139.706 167.645 140.124 167.448 140.611 167.382C140.89 167.316 141.168 167.316 141.447 167.316C141.655 167.316 141.864 167.382 142.073 167.382C142.212 167.448 142.421 167.513 142.56 167.579C142.699 167.71 142.908 167.776 143.048 167.908C143.256 168.105 143.396 168.302 143.535 168.565C143.744 168.959 143.952 169.419 144.022 169.813C144.231 170.733 144.301 171.654 144.301 172.574C144.579 172.114 144.857 171.588 145.066 171.062C145.553 169.419 145.693 167.513 144.44 166.068Z" fill="#93907D"></path><path d="M138.036 163.833C137.618 163.636 137.2 163.505 136.713 163.505C136.295 163.505 135.808 163.57 135.391 163.702C134.416 163.965 133.511 164.622 132.815 165.279C131.562 166.462 131.144 168.17 130.657 169.682C130.448 170.339 130.239 170.931 129.822 171.522C129.683 171.719 129.474 171.982 129.265 172.179C129.056 172.376 128.847 172.508 128.638 172.639C128.36 172.771 128.012 172.902 127.664 172.968C128.43 173.165 129.334 173.099 130.031 172.771C131.562 172.114 132.467 170.668 133.372 169.353C133.859 168.696 134.277 167.973 134.903 167.448C135.251 167.119 135.669 166.856 136.156 166.659C136.365 166.593 136.504 166.528 136.713 166.462H136.783C136.783 166.462 136.783 166.462 136.852 166.462C136.922 166.528 136.992 166.659 137.061 166.725C137.27 167.053 137.409 167.448 137.479 167.842V167.908C137.757 169.156 137.896 170.471 137.827 171.719C137.827 172.311 137.757 172.902 137.618 173.494C138.105 172.968 138.453 172.376 138.801 171.785C139.428 170.602 139.846 169.222 139.915 167.842C139.915 167.053 139.915 166.33 139.637 165.608C139.497 165.279 139.358 164.95 139.149 164.687C138.801 164.293 138.453 164.03 138.036 163.833Z" fill="#93907D"></path><path d="M132.119 171.851C130.657 173.296 128.499 173.756 126.62 174.611C126.55 174.611 126.48 174.677 126.411 174.677C126.063 174.874 125.645 175.071 125.367 175.399C125.158 175.597 124.949 175.859 124.74 176.122C124.531 176.451 124.392 176.779 124.253 177.108C124.183 177.371 124.114 177.568 124.114 177.831C124.114 178.028 124.114 178.225 124.183 178.488C124.253 178.685 124.323 178.948 124.462 179.145C124.601 179.342 124.74 179.54 124.949 179.737C125.158 179.934 125.436 180.131 125.645 180.262C125.924 180.394 126.272 180.525 126.55 180.657C126.898 180.722 127.316 180.788 127.733 180.854C128.221 180.854 128.708 180.788 129.126 180.722C129.334 180.657 129.474 180.657 129.682 180.591C128.221 182.037 125.784 182.497 123.835 181.577C122.791 181.117 122.025 180.262 121.538 179.342C121.051 178.225 121.121 176.977 121.538 175.925C122.025 174.742 123.139 173.756 124.323 173.231C125.297 172.771 126.411 172.639 127.525 172.574C128.847 172.508 130.1 172.508 131.423 172.245C131.701 171.916 131.91 171.916 132.119 171.851Z" fill="#93907D"></path><path d="M108.869 155.684C109.426 156.276 118.754 156.736 118.754 156.539C118.893 159.43 119.171 163.702 120.146 165.476C121.051 167.185 122.165 168.171 122.861 168.762C124.114 169.945 124.949 170.602 126.55 171.391C129.056 172.705 132.119 171.916 132.119 171.916C132.119 171.916 130.727 172.705 129.265 172.836C128.012 172.968 125.854 173.099 123.348 172.442C119.798 171.456 117.57 169.353 116.178 167.842C113.464 164.819 112.071 162.519 110.61 159.759C109.287 157.196 108.243 155.487 108.243 155.487C108.243 155.487 108.8 155.619 108.869 155.684Z" fill="#93907D"></path><path d="M614 178L539.282 181V175L614 178Z" fill="#93907D"></path><path d="M314.786 181L240 178L314.786 175V181Z" fill="#93907D"></path><path d="M326 192.281V191.887H328.338V170.66H326V170.266H333.086V175.129C333.378 173.486 333.962 172.238 334.912 171.318C335.862 170.398 337.03 170.003 338.491 170.003C339.733 170.003 340.902 170.266 341.998 170.858C343.093 171.449 343.97 172.303 344.701 173.421C345.358 174.538 345.723 175.852 345.723 177.429C345.723 179.007 345.358 180.321 344.701 181.438C344.043 182.555 343.093 183.41 341.998 184.001C340.902 184.593 339.733 184.921 338.491 184.921C337.03 184.921 335.862 184.461 334.912 183.541C333.962 182.621 333.378 181.372 333.086 179.729V191.953H335.35V192.347H326V192.281ZM337.396 184.132C338.053 184.132 338.564 183.87 339.003 183.344C339.441 182.818 339.733 182.095 339.952 181.11C340.172 180.124 340.245 178.875 340.245 177.429C340.245 175.984 340.172 174.735 339.952 173.749C339.733 172.763 339.441 172.041 339.003 171.515C338.564 170.989 338.053 170.792 337.396 170.792C336.665 170.792 336.008 171.055 335.35 171.515C334.693 172.041 334.181 172.763 333.743 173.749C333.305 174.735 333.086 175.984 333.086 177.429C333.086 178.875 333.305 180.124 333.743 181.11C334.181 182.095 334.693 182.884 335.35 183.344C336.008 183.804 336.738 184.132 337.396 184.132Z" fill="#93907D"></path><path d="M355.731 184.855C354.416 184.855 353.466 184.658 352.736 184.264C352.005 183.87 351.567 183.278 351.275 182.621C350.983 181.898 350.837 181.109 350.837 180.189V170.66H348.499V170.266H355.585V179.927C355.585 180.781 355.658 181.504 355.731 182.03C355.804 182.555 355.95 183.015 356.242 183.278C356.461 183.541 356.827 183.672 357.338 183.672C358.069 183.672 358.726 183.475 359.237 183.081C359.749 182.687 360.187 182.161 360.479 181.504C360.771 180.847 360.991 180.124 361.137 179.401C361.283 178.678 361.356 177.889 361.356 177.232L361.648 177.166C361.648 177.889 361.575 178.744 361.429 179.598C361.283 180.452 360.99 181.307 360.552 182.095C360.114 182.884 359.53 183.541 358.726 184.067C357.922 184.593 356.973 184.855 355.731 184.855ZM361.356 184.527V170.66H359.091V170.266H366.177V184.132H368.442V184.527H361.356Z" fill="#93907D"></path><path d="M383.27 184.855C381.809 184.855 380.641 184.395 379.691 183.475C378.741 182.555 378.157 181.307 377.865 179.664V184.527H370.779V184.132H373.117V161.657H370.779V161.263H377.865V175.064C378.157 173.421 378.741 172.172 379.691 171.252C380.641 170.332 381.809 169.938 383.27 169.938C384.512 169.938 385.681 170.2 386.777 170.792C387.873 171.383 388.749 172.238 389.48 173.355C390.137 174.472 390.502 175.786 390.502 177.364C390.502 178.941 390.137 180.255 389.48 181.372C388.822 182.49 387.873 183.344 386.777 183.935C385.681 184.527 384.512 184.855 383.27 184.855ZM382.102 184.132C382.759 184.132 383.27 183.87 383.709 183.344C384.147 182.818 384.439 182.095 384.658 181.11C384.878 180.124 384.951 178.875 384.951 177.429C384.951 175.984 384.878 174.735 384.658 173.749C384.439 172.763 384.147 172.041 383.709 171.515C383.27 170.989 382.759 170.792 382.102 170.792C381.371 170.792 380.714 171.055 380.056 171.515C379.399 172.041 378.888 172.763 378.449 173.749C378.011 174.735 377.792 175.984 377.792 177.429C377.792 178.875 378.011 180.124 378.449 181.11C378.888 182.095 379.399 182.884 380.056 183.344C380.714 183.87 381.444 184.132 382.102 184.132Z" fill="#93907D"></path><path d="M411.54 184.855C409.714 184.855 408.18 184.592 406.938 184.132C405.697 183.672 404.747 182.95 404.089 182.095C403.432 181.241 403.14 180.255 403.14 179.072C403.14 178.086 403.359 177.232 403.797 176.509C404.236 175.786 404.82 175.129 405.477 174.603C406.135 174.078 406.865 173.618 407.596 173.223C408.326 172.829 409.057 172.566 409.641 172.303C410.226 172.04 410.737 171.909 411.029 171.778L411.248 172.04C410.664 172.303 410.226 172.632 409.86 173.092C409.495 173.486 409.203 174.012 408.984 174.603C408.765 175.195 408.692 175.918 408.692 176.772C408.692 177.626 408.838 178.481 409.057 179.269C409.276 180.058 409.641 180.847 410.153 181.569C410.664 182.292 411.248 182.818 411.979 183.212C412.709 183.607 413.513 183.804 414.462 183.804C415.631 183.804 416.8 183.541 417.896 183.081C418.991 182.621 420.014 181.964 420.964 181.109C421.913 180.255 422.79 179.269 423.52 178.152C424.251 177.035 424.908 175.786 425.347 174.538C425.858 173.223 426.15 171.909 426.296 170.529H426.735C426.589 171.909 426.223 173.289 425.785 174.669C425.274 176.049 424.616 177.364 423.74 178.612C422.863 179.861 421.913 180.978 420.672 181.898C419.43 182.818 418.115 183.607 416.654 184.198C415.047 184.592 413.367 184.855 411.54 184.855ZM420.379 184.527L408.984 169.346C408.545 168.755 408.18 168.097 407.888 167.375C407.596 166.652 407.45 166.06 407.45 165.534C407.45 164.614 407.815 163.826 408.472 163.103C409.13 162.446 410.079 161.92 411.321 161.526C412.563 161.131 413.951 161 415.558 161C417.092 161 418.407 161.131 419.503 161.46C420.599 161.789 421.475 162.183 422.133 162.774C422.717 163.366 423.082 164.023 423.082 164.812C423.082 165.534 422.863 166.192 422.498 166.717C422.133 167.243 421.548 167.703 420.891 168.163C420.233 168.557 419.43 168.952 418.553 169.28C417.677 169.609 416.727 169.938 415.777 170.266L415.558 170.003C415.85 169.806 416.216 169.543 416.581 169.149C416.946 168.82 417.238 168.295 417.53 167.637C417.823 166.98 417.896 166.06 417.896 164.877C417.896 164.286 417.823 163.76 417.677 163.234C417.53 162.709 417.311 162.249 416.946 161.92C416.581 161.591 416.143 161.394 415.485 161.394C414.901 161.394 414.389 161.526 413.951 161.854C413.513 162.183 413.294 162.511 413.148 162.972C413.001 163.432 412.855 163.892 412.855 164.352C412.855 164.943 413.074 165.732 413.586 166.652C414.097 167.572 414.682 168.492 415.412 169.478L426.223 184.264H430.533V184.658H420.379V184.527ZM421.913 170.66V170.266H430.168V170.66H421.913Z" fill="#93907D"></path><path d="M449.307 170.266V184.132H450.987V184.527H442.221V184.132H444.559V170.66H442.221V170.266H449.307ZM459.095 174.669V184.198H460.776V184.593H452.594V184.198H454.274V174.932C454.274 174.078 454.201 173.355 454.128 172.763C454.055 172.172 453.909 171.778 453.69 171.515C453.471 171.252 453.178 171.12 452.74 171.12C452.156 171.12 451.571 171.318 451.133 171.712C450.695 172.106 450.329 172.632 450.037 173.289C449.745 173.946 449.526 174.603 449.38 175.392C449.234 176.181 449.161 176.904 449.161 177.626L448.869 177.692C448.869 176.969 448.942 176.115 449.088 175.261C449.234 174.406 449.453 173.552 449.891 172.763C450.256 171.975 450.841 171.318 451.571 170.792C452.302 170.266 453.251 170.003 454.493 170.003C455.662 170.003 456.539 170.2 457.196 170.595C457.854 170.989 458.292 171.581 458.584 172.238C458.876 172.895 459.095 173.749 459.095 174.669ZM468.884 174.669V184.198H471.148V184.593H462.383V184.198H464.063V174.932C464.063 174.078 463.99 173.355 463.917 172.763C463.844 172.238 463.697 171.778 463.478 171.515C463.259 171.252 462.967 171.12 462.529 171.12C461.944 171.12 461.36 171.318 460.922 171.712C460.483 172.106 460.118 172.632 459.826 173.289C459.534 173.946 459.315 174.603 459.241 175.392C459.095 176.181 459.022 176.904 459.022 177.626L458.73 177.692C458.73 176.969 458.803 176.115 458.949 175.261C459.095 174.406 459.315 173.552 459.68 172.763C460.045 171.975 460.629 171.318 461.36 170.792C462.09 170.266 463.04 170.003 464.282 170.003C465.451 170.003 466.327 170.2 466.985 170.595C467.642 170.989 468.153 171.581 468.446 172.238C468.738 172.895 468.884 173.749 468.884 174.669Z" fill="#93907D"></path><path d="M482.398 184.855C480.645 184.855 479.184 184.527 477.942 183.804C476.7 183.147 475.751 182.227 475.02 181.11C474.363 179.992 473.997 178.744 473.997 177.429C473.997 176.115 474.363 174.866 475.02 173.749C475.678 172.632 476.7 171.712 477.942 171.055C479.184 170.398 480.718 170.003 482.398 170.003C484.151 170.003 485.612 170.332 486.854 171.055C488.096 171.778 489.046 172.632 489.776 173.749C490.433 174.866 490.799 176.115 490.799 177.429C490.799 178.744 490.433 179.992 489.776 181.11C489.119 182.227 488.169 183.147 486.854 183.804C485.539 184.461 484.151 184.855 482.398 184.855ZM482.398 184.461C483.055 184.461 483.567 184.264 484.005 183.87C484.443 183.475 484.736 182.95 485.028 182.292C485.32 181.635 485.466 180.847 485.539 180.058C485.612 179.204 485.685 178.349 485.685 177.429C485.685 176.509 485.612 175.589 485.539 174.801C485.466 173.946 485.247 173.223 485.028 172.566C484.809 171.909 484.443 171.383 484.005 170.989C483.567 170.595 483.055 170.398 482.398 170.398C481.741 170.398 481.229 170.595 480.791 170.989C480.353 171.383 480.06 171.909 479.768 172.566C479.549 173.223 479.33 173.946 479.257 174.801C479.184 175.655 479.111 176.509 479.111 177.429C479.111 178.349 479.184 179.204 479.257 180.058C479.33 180.912 479.549 181.635 479.768 182.292C479.987 182.95 480.353 183.475 480.791 183.87C481.229 184.264 481.741 184.461 482.398 184.461Z" fill="#93907D"></path><path d="M500.66 170.266V184.132H503.29V184.527H493.575V184.132H495.912V170.66H493.575V170.266H500.66ZM500.368 177.824C500.368 176.772 500.441 175.786 500.66 174.801C500.806 173.881 501.099 173.026 501.537 172.303C501.902 171.58 502.413 170.989 503.071 170.595C503.728 170.2 504.532 169.938 505.408 169.938C506.212 169.938 506.869 170.069 507.381 170.398C507.965 170.726 508.33 171.12 508.623 171.581C508.915 172.041 509.061 172.566 509.061 173.158C509.061 173.881 508.769 174.472 508.257 174.998C507.746 175.524 507.016 175.786 506.212 175.786C505.335 175.786 504.678 175.524 504.167 175.064C503.655 174.603 503.363 174.012 503.363 173.355C503.363 172.632 503.655 171.975 504.167 171.515C504.678 171.055 505.408 170.792 506.212 170.792C506.723 170.792 507.235 170.923 507.673 171.12C508.111 171.318 508.477 171.646 508.696 171.975C508.915 172.303 509.061 172.698 509.061 173.092H508.623C508.623 172.566 508.477 172.106 508.257 171.712C507.965 171.252 507.6 170.923 507.089 170.66C506.577 170.398 505.993 170.266 505.335 170.266C504.532 170.266 503.801 170.463 503.217 170.858C502.633 171.252 502.121 171.778 501.756 172.501C501.391 173.223 501.099 174.012 500.879 174.866C500.66 175.786 500.587 176.706 500.587 177.758H500.368V177.824Z" fill="#93907D"></path><path d="M520.091 184.855C518.484 184.855 517.023 184.593 515.781 184.001C514.54 183.41 513.517 182.621 512.786 181.504C512.056 180.387 511.691 179.072 511.691 177.429C511.691 175.786 512.056 174.472 512.713 173.355C513.444 172.238 514.393 171.383 515.635 170.858C516.877 170.332 518.338 170.003 519.945 170.003C521.625 170.003 523.013 170.332 524.182 170.923C525.278 171.515 526.081 172.369 526.666 173.355C527.177 174.341 527.469 175.392 527.469 176.509H514.028V176.115H522.356C522.356 175.458 522.356 174.801 522.283 174.143C522.21 173.486 522.137 172.829 521.991 172.303C521.845 171.712 521.625 171.252 521.26 170.923C520.968 170.595 520.53 170.398 520.018 170.398C519.434 170.398 518.923 170.595 518.557 170.923C518.192 171.252 517.9 171.778 517.681 172.435C517.462 173.092 517.315 173.815 517.242 174.603C517.169 175.392 517.096 176.246 517.096 177.166C517.096 178.152 517.169 179.138 517.242 179.992C517.315 180.847 517.535 181.635 517.827 182.292C518.119 182.95 518.484 183.475 518.996 183.87C519.507 184.264 520.164 184.395 520.968 184.395C522.502 184.395 523.817 184.001 524.84 183.212C525.862 182.424 526.666 181.438 527.104 180.255H527.542C527.104 181.57 526.301 182.687 525.059 183.541C523.817 184.395 522.137 184.855 520.091 184.855Z" fill="#93907D"></path></svg> 