<?xml version="1.0" encoding="UTF-8"?>
<svg id="Layer_1" data-name="Layer 1" xmlns="http://www.w3.org/2000/svg" viewBox="0 0 846.84 320">
  <defs>
    <style>
      .cls-1 {
        fill: #0091ea;
      }

      .cls-2 {
        fill: #00c853;
      }
    </style>
  </defs>
  <g>
    <circle class="cls-1" cx="262.98" cy="173.51" r="24.23"/>
    <path class="cls-2" d="M124.51,267.01c-49.09,0-89.03-39.94-89.03-89.03v-99.63c0-10.93,8.86-19.8,19.8-19.8s19.8,8.86,19.8,19.8v99.63c0,27.26,22.18,49.43,49.43,49.43s49.43-22.18,49.43-49.43c0-10.93,8.86-19.8,19.8-19.8s19.8,8.86,19.8,19.8c0,49.09-39.94,89.03-89.03,89.03Z"/>
    <path class="cls-1" d="M332.21,261.45c-10.93,0-19.8-8.86-19.8-19.8v-99.63c0-27.26-22.18-49.43-49.43-49.43s-49.43,22.18-49.43,49.43v35.96c0,10.93-8.86,19.8-19.8,19.8s-19.8-8.86-19.8-19.8v-35.96c0-49.09,39.94-89.03,89.03-89.03s89.03,39.94,89.03,89.03v99.63c0,10.93-8.86,19.8-19.8,19.8Z"/>
  </g>
  <g>
    <g>
      <path d="M429.9,111.69v-56.82h18.46v56.82c0,13.99,7.21,22.35,21.49,22.35s21.63-8.36,21.63-22.35v-56.82h18.03v56.82c0,24.08-14.13,39.37-39.51,39.37s-40.09-15.14-40.09-39.37Z"/>
      <path d="M538.07,54.87h39.51c23.94,0,34.47,13.12,34.47,31.15,0,14.85-7.07,25.09-19.76,29.28l23.22,33.89h-21.92l-20.05-31.87h-17.02v31.87h-18.46V54.87ZM577.87,100.15c11.68,0,15.57-6.06,15.57-14.13s-3.89-13.99-15.57-13.99h-21.34v28.12h21.34Z"/>
      <path d="M634.98,121.92h18.03c.14,7.5,5.77,12.55,17.02,12.55s17.02-5.05,17.02-12.55c0-8.22-8.8-9.81-19.04-11.68-14.28-2.6-31.15-5.62-31.15-27.54,0-17.45,13.27-29.71,33.31-29.71s32.59,11.68,33.31,28.99h-17.45c-.14-7.21-5.48-12.4-15.72-12.4s-15.57,5.62-15.57,12.55c0,8.22,8.8,9.81,19.04,11.68,14.28,2.6,31.29,5.62,31.29,27.54,0,18.31-13.99,29.71-35.04,29.71s-34.61-11.1-35.04-29.13Z"/>
      <path d="M728.87,93.95c0-25.24,14.42-40.95,41.1-40.95s41.39,15.72,41.39,40.95v55.23h-18.46v-28.27h-46v28.27h-18.03v-55.23ZM792.9,104.19v-10.24c0-15.14-7.5-23.79-23.07-23.79s-22.93,8.65-22.93,23.79v10.24h46Z"/>
    </g>
    <g>
      <path d="M429.9,220.29c0-20.64,11.8-33.5,33.62-33.5s33.85,12.86,33.85,33.5v45.18h-15.1v-23.12h-37.63v23.12h-14.74v-45.18ZM482.28,228.67v-8.38c0-12.39-6.13-19.46-18.87-19.46s-18.76,7.08-18.76,19.46v8.38h37.63Z"/>
      <path d="M517.54,235.75c0-19.93,14.86-30.08,29.02-30.08,8.37,0,15.33,3.54,19.46,10.03v-33.97h14.04v54.14c0,18.87-12.74,31.14-31.02,31.14s-31.5-12.74-31.5-31.26ZM566.02,236.34c0-10.26-6.84-17.58-17.1-17.58s-17.22,7.31-17.22,17.58,6.96,17.58,17.22,17.58,17.1-7.31,17.1-17.58Z"/>
      <path d="M602.23,232.21c0-18.28,10.62-26.54,24.42-26.54,8.73,0,15.93,3.66,20.17,10.5,4.13-6.84,11.32-10.5,20.17-10.5,13.8,0,24.42,8.26,24.42,26.54v33.26h-14.04v-33.26c0-9.55-4.95-13.45-11.8-13.45s-11.68,4.01-11.68,13.45v33.26h-14.04v-33.26c0-9.44-5.07-13.45-11.8-13.45s-11.8,3.89-11.8,13.45v33.26h-14.04v-33.26Z"/>
      <path d="M713.33,190.33c0-5.43,3.89-9.44,9.32-9.44s9.32,4.01,9.32,9.44-3.89,9.32-9.32,9.32-9.32-3.89-9.32-9.32ZM715.58,207.2h14.04v58.27h-14.04v-58.27Z"/>
      <path d="M753.79,235.16c0-19.46,11.56-29.49,28.78-29.49s28.78,9.91,28.78,29.49v30.31h-14.04v-30.31c0-11.09-5.9-16.4-14.74-16.4s-14.74,5.31-14.74,16.4v30.31h-14.04v-30.31Z"/>
    </g>
  </g>
</svg>